# xmcd
#
# Track frame offsets:
#	150
#	20405
#	37790
#	50548
#	63733
#	78265
#	94468
#	106346
#	123586
#	140269
#	154834
#	173771
#	190476
#	205572
#
# Disc length: 2897 seconds
#
# Revision: 0
# Processed by: cddbd v1.5.2PL0 Copyright (c) Steve Scherf et al.
# Submitted via: dBpowerAMP V4.0
#
DISCID=ba0b4f0e
DTITLE=Los Lazos - Aysén... desde la tierra al corazón
DYEAR=2001
DGENRE=National Folk
TTITLE0=Buenos días pasados
TTITLE1=Amada mía
TTITLE2=La Cuartelera
TTITLE3=Reina del Viento
TTITLE4=Santiago del 900
TTITLE5=Mujer
TTITLE6=Cachito e' tierra
TTITLE7=Cuánto te Amé
TTITLE8=Dicen que el amor
TTITLE9=Échame a mi la culpa
TTITLE10=Ilusión Arriera
TTITLE11=Plegaria del Caminante
TTITLE12=Volver
TTITLE13=Carpas de Salta
EXTD=tribilin
EXTT0=
EXTT1=
EXTT2=
EXTT3=
EXTT4=
EXTT5=
EXTT6=
EXTT7=
EXTT8=
EXTT9=
EXTT10=
EXTT11=
EXTT12=
EXTT13=
PLAYORDER=
